<mxfile host="www.draw.io" modified="2019-11-30T08:48:09.581Z" agent="Mozilla/5.0 (Windows NT 10.0; Win64; x64) AppleWebKit/537.36 (KHTML, like Gecko) Chrome/69.0.3497.92 Safari/537.36" etag="pBDa9nEIJ7FJqYmpODJM" version="12.3.3" type="github" pages="1">
  <diagram id="7XM90E7gvL7kG59l3awE" name="Page-1">
    <mxGraphModel dx="6017" dy="2655" grid="1" gridSize="10" guides="1" tooltips="1" connect="1" arrows="1" fold="1" page="1" pageScale="1" pageWidth="827" pageHeight="1169" math="0" shadow="0">
      <root>
        <mxCell id="0"/>
        <mxCell id="1" parent="0"/>
        <mxCell id="hNplgGaHxWNk5ys2LDTW-217" value="" style="edgeStyle=orthogonalEdgeStyle;curved=1;rounded=0;orthogonalLoop=1;jettySize=auto;html=1;" edge="1" parent="1" source="CS9CvjdTIMPLSDDu2vC3-2">
          <mxGeometry relative="1" as="geometry">
            <mxPoint x="-105" y="800" as="targetPoint"/>
          </mxGeometry>
        </mxCell>
        <mxCell id="CS9CvjdTIMPLSDDu2vC3-2" value="&lt;font style=&quot;font-size: 24px&quot;&gt;Input&lt;br&gt;image&lt;/font&gt;" style="rounded=0;whiteSpace=wrap;html=1;" parent="1" vertex="1">
          <mxGeometry x="-265" y="80" width="320" height="180" as="geometry"/>
        </mxCell>
        <mxCell id="hNplgGaHxWNk5ys2LDTW-221" value="&lt;font style=&quot;font-size: 24px&quot;&gt;Conv3&lt;/font&gt;" style="rounded=0;whiteSpace=wrap;html=1;gradientColor=#ffd966;fillColor=#fff2cc;strokeColor=#d6b656;" vertex="1" parent="1">
          <mxGeometry x="-240" y="800" width="270" height="70" as="geometry"/>
        </mxCell>
        <mxCell id="hNplgGaHxWNk5ys2LDTW-222" value="&lt;font style=&quot;font-size: 24px&quot;&gt;PReLU&lt;/font&gt;" style="rounded=0;whiteSpace=wrap;html=1;gradientColor=#97d077;fillColor=#d5e8d4;strokeColor=#82b366;" vertex="1" parent="1">
          <mxGeometry x="-240" y="870" width="270" height="70" as="geometry"/>
        </mxCell>
        <mxCell id="hNplgGaHxWNk5ys2LDTW-223" value="&lt;font style=&quot;font-size: 24px&quot;&gt;Conv3&lt;/font&gt;" style="rounded=0;whiteSpace=wrap;html=1;gradientColor=#ffd966;fillColor=#fff2cc;strokeColor=#d6b656;" vertex="1" parent="1">
          <mxGeometry x="-240" y="940" width="270" height="70" as="geometry"/>
        </mxCell>
        <mxCell id="hNplgGaHxWNk5ys2LDTW-226" value="" style="edgeStyle=orthogonalEdgeStyle;curved=1;rounded=0;orthogonalLoop=1;jettySize=auto;html=1;" edge="1" parent="1" source="hNplgGaHxWNk5ys2LDTW-224" target="hNplgGaHxWNk5ys2LDTW-225">
          <mxGeometry relative="1" as="geometry"/>
        </mxCell>
        <mxCell id="hNplgGaHxWNk5ys2LDTW-224" value="&lt;font style=&quot;font-size: 24px&quot;&gt;PReLU&lt;/font&gt;" style="rounded=0;whiteSpace=wrap;html=1;gradientColor=#97d077;fillColor=#d5e8d4;strokeColor=#82b366;" vertex="1" parent="1">
          <mxGeometry x="-240" y="1010" width="270" height="70" as="geometry"/>
        </mxCell>
        <mxCell id="hNplgGaHxWNk5ys2LDTW-225" value="&lt;font style=&quot;font-size: 24px&quot;&gt;MAX&lt;br&gt;Pooling&lt;br&gt;&lt;/font&gt;" style="rounded=0;whiteSpace=wrap;html=1;gradientColor=#7ea6e0;fillColor=#dae8fc;strokeColor=#6c8ebf;" vertex="1" parent="1">
          <mxGeometry x="-240" y="1160" width="270" height="70" as="geometry"/>
        </mxCell>
        <mxCell id="hNplgGaHxWNk5ys2LDTW-227" value="&lt;font style=&quot;font-size: 24px&quot;&gt;Conv3&lt;/font&gt;" style="rounded=0;whiteSpace=wrap;html=1;gradientColor=#ffd966;fillColor=#fff2cc;strokeColor=#d6b656;" vertex="1" parent="1">
          <mxGeometry x="-240" y="1230" width="270" height="70" as="geometry"/>
        </mxCell>
        <mxCell id="hNplgGaHxWNk5ys2LDTW-228" value="&lt;font style=&quot;font-size: 24px&quot;&gt;PReLU&lt;/font&gt;" style="rounded=0;whiteSpace=wrap;html=1;gradientColor=#97d077;fillColor=#d5e8d4;strokeColor=#82b366;" vertex="1" parent="1">
          <mxGeometry x="-240" y="1300" width="270" height="70" as="geometry"/>
        </mxCell>
        <mxCell id="hNplgGaHxWNk5ys2LDTW-229" value="" style="edgeStyle=orthogonalEdgeStyle;curved=1;rounded=0;orthogonalLoop=1;jettySize=auto;html=1;" edge="1" target="hNplgGaHxWNk5ys2LDTW-230" parent="1">
          <mxGeometry relative="1" as="geometry">
            <mxPoint x="-105" y="1370" as="sourcePoint"/>
          </mxGeometry>
        </mxCell>
        <mxCell id="hNplgGaHxWNk5ys2LDTW-230" value="&lt;font style=&quot;font-size: 24px&quot;&gt;MAX&lt;br&gt;Pooling&lt;br&gt;&lt;/font&gt;" style="rounded=0;whiteSpace=wrap;html=1;gradientColor=#7ea6e0;fillColor=#dae8fc;strokeColor=#6c8ebf;" vertex="1" parent="1">
          <mxGeometry x="-240" y="1450" width="270" height="70" as="geometry"/>
        </mxCell>
        <mxCell id="hNplgGaHxWNk5ys2LDTW-231" value="&lt;font style=&quot;font-size: 24px&quot;&gt;Conv3&lt;/font&gt;" style="rounded=0;whiteSpace=wrap;html=1;gradientColor=#ffd966;fillColor=#fff2cc;strokeColor=#d6b656;" vertex="1" parent="1">
          <mxGeometry x="-240" y="1520" width="270" height="70" as="geometry"/>
        </mxCell>
        <mxCell id="hNplgGaHxWNk5ys2LDTW-232" value="&lt;font style=&quot;font-size: 24px&quot;&gt;PReLU&lt;/font&gt;" style="rounded=0;whiteSpace=wrap;html=1;gradientColor=#97d077;fillColor=#d5e8d4;strokeColor=#82b366;" vertex="1" parent="1">
          <mxGeometry x="-240" y="1590" width="270" height="70" as="geometry"/>
        </mxCell>
        <mxCell id="hNplgGaHxWNk5ys2LDTW-233" value="" style="edgeStyle=orthogonalEdgeStyle;curved=1;rounded=0;orthogonalLoop=1;jettySize=auto;html=1;" edge="1" target="hNplgGaHxWNk5ys2LDTW-234" parent="1">
          <mxGeometry relative="1" as="geometry">
            <mxPoint x="-105" y="1660" as="sourcePoint"/>
          </mxGeometry>
        </mxCell>
        <mxCell id="hNplgGaHxWNk5ys2LDTW-234" value="&lt;font style=&quot;font-size: 24px&quot;&gt;MAX&lt;br&gt;Pooling&lt;br&gt;&lt;/font&gt;" style="rounded=0;whiteSpace=wrap;html=1;gradientColor=#7ea6e0;fillColor=#dae8fc;strokeColor=#6c8ebf;" vertex="1" parent="1">
          <mxGeometry x="-240" y="1740" width="270" height="70" as="geometry"/>
        </mxCell>
        <mxCell id="hNplgGaHxWNk5ys2LDTW-235" value="&lt;font style=&quot;font-size: 24px&quot;&gt;Conv3&lt;/font&gt;" style="rounded=0;whiteSpace=wrap;html=1;gradientColor=#ffd966;fillColor=#fff2cc;strokeColor=#d6b656;" vertex="1" parent="1">
          <mxGeometry x="-240" y="1810" width="270" height="70" as="geometry"/>
        </mxCell>
        <mxCell id="hNplgGaHxWNk5ys2LDTW-236" value="&lt;font style=&quot;font-size: 24px&quot;&gt;PReLU&lt;/font&gt;" style="rounded=0;whiteSpace=wrap;html=1;gradientColor=#97d077;fillColor=#d5e8d4;strokeColor=#82b366;" vertex="1" parent="1">
          <mxGeometry x="-240" y="1880" width="270" height="70" as="geometry"/>
        </mxCell>
        <mxCell id="hNplgGaHxWNk5ys2LDTW-237" value="" style="edgeStyle=orthogonalEdgeStyle;curved=1;rounded=0;orthogonalLoop=1;jettySize=auto;html=1;" edge="1" target="hNplgGaHxWNk5ys2LDTW-238" parent="1">
          <mxGeometry relative="1" as="geometry">
            <mxPoint x="-105" y="1950" as="sourcePoint"/>
          </mxGeometry>
        </mxCell>
        <mxCell id="hNplgGaHxWNk5ys2LDTW-238" value="&lt;font style=&quot;font-size: 24px&quot;&gt;MAX&lt;br&gt;Pooling&lt;br&gt;&lt;/font&gt;" style="rounded=0;whiteSpace=wrap;html=1;gradientColor=#7ea6e0;fillColor=#dae8fc;strokeColor=#6c8ebf;" vertex="1" parent="1">
          <mxGeometry x="-240" y="2030" width="270" height="70" as="geometry"/>
        </mxCell>
        <mxCell id="hNplgGaHxWNk5ys2LDTW-239" value="&lt;font style=&quot;font-size: 24px&quot;&gt;Conv3&lt;/font&gt;" style="rounded=0;whiteSpace=wrap;html=1;gradientColor=#ffd966;fillColor=#fff2cc;strokeColor=#d6b656;" vertex="1" parent="1">
          <mxGeometry x="-240" y="2100" width="270" height="70" as="geometry"/>
        </mxCell>
        <mxCell id="hNplgGaHxWNk5ys2LDTW-240" value="&lt;font style=&quot;font-size: 24px&quot;&gt;PReLU&lt;/font&gt;" style="rounded=0;whiteSpace=wrap;html=1;gradientColor=#97d077;fillColor=#d5e8d4;strokeColor=#82b366;" vertex="1" parent="1">
          <mxGeometry x="-240" y="2170" width="270" height="70" as="geometry"/>
        </mxCell>
        <mxCell id="hNplgGaHxWNk5ys2LDTW-243" value="&lt;font style=&quot;font-size: 24px&quot;&gt;Deconv&lt;/font&gt;" style="rounded=0;whiteSpace=wrap;html=1;gradientColor=#ffa500;fillColor=#ffcd28;strokeColor=#d79b00;" vertex="1" parent="1">
          <mxGeometry x="426" y="2213" width="262" height="70" as="geometry"/>
        </mxCell>
        <mxCell id="hNplgGaHxWNk5ys2LDTW-245" value="&lt;font style=&quot;font-size: 24px&quot;&gt;Connection&lt;/font&gt;" style="rounded=0;whiteSpace=wrap;html=1;gradientColor=#ea6b66;fillColor=#f8cecc;strokeColor=#b85450;" vertex="1" parent="1">
          <mxGeometry x="426" y="2143" width="262" height="70" as="geometry"/>
        </mxCell>
        <mxCell id="hNplgGaHxWNk5ys2LDTW-598" style="edgeStyle=orthogonalEdgeStyle;curved=1;rounded=0;orthogonalLoop=1;jettySize=auto;html=1;" edge="1" parent="1" source="hNplgGaHxWNk5ys2LDTW-248">
          <mxGeometry relative="1" as="geometry">
            <mxPoint x="557" y="1920" as="targetPoint"/>
          </mxGeometry>
        </mxCell>
        <mxCell id="hNplgGaHxWNk5ys2LDTW-248" value="&lt;font style=&quot;font-size: 24px&quot;&gt;Conv3+PReLU&lt;/font&gt;" style="rounded=0;whiteSpace=wrap;html=1;gradientColor=#ffd966;fillColor=#fff2cc;strokeColor=#d6b656;" vertex="1" parent="1">
          <mxGeometry x="426" y="2003" width="262" height="70" as="geometry"/>
        </mxCell>
        <mxCell id="hNplgGaHxWNk5ys2LDTW-249" value="&lt;font style=&quot;font-size: 24px&quot;&gt;Conv3+PReLU&lt;/font&gt;" style="rounded=0;whiteSpace=wrap;html=1;gradientColor=#ffd966;fillColor=#fff2cc;strokeColor=#d6b656;" vertex="1" parent="1">
          <mxGeometry x="426" y="2073" width="262" height="70" as="geometry"/>
        </mxCell>
        <mxCell id="hNplgGaHxWNk5ys2LDTW-571" value="&lt;font style=&quot;font-size: 24px&quot;&gt;Deconv&lt;/font&gt;" style="rounded=0;whiteSpace=wrap;html=1;gradientColor=#ffa500;fillColor=#ffcd28;strokeColor=#d79b00;" vertex="1" parent="1">
          <mxGeometry x="429.5" y="1843" width="262" height="70" as="geometry"/>
        </mxCell>
        <mxCell id="hNplgGaHxWNk5ys2LDTW-572" value="&lt;font style=&quot;font-size: 24px&quot;&gt;Connection&lt;/font&gt;" style="rounded=0;whiteSpace=wrap;html=1;gradientColor=#ea6b66;fillColor=#f8cecc;strokeColor=#b85450;" vertex="1" parent="1">
          <mxGeometry x="429.5" y="1773" width="262" height="70" as="geometry"/>
        </mxCell>
        <mxCell id="hNplgGaHxWNk5ys2LDTW-587" style="edgeStyle=orthogonalEdgeStyle;curved=1;rounded=0;orthogonalLoop=1;jettySize=auto;html=1;" edge="1" parent="1" source="hNplgGaHxWNk5ys2LDTW-573">
          <mxGeometry relative="1" as="geometry">
            <mxPoint x="560.5000000000005" y="1543.0000000000005" as="targetPoint"/>
          </mxGeometry>
        </mxCell>
        <mxCell id="hNplgGaHxWNk5ys2LDTW-573" value="&lt;font style=&quot;font-size: 24px&quot;&gt;Conv3+PReLU&lt;/font&gt;" style="rounded=0;whiteSpace=wrap;html=1;gradientColor=#ffd966;fillColor=#fff2cc;strokeColor=#d6b656;" vertex="1" parent="1">
          <mxGeometry x="429.5" y="1633" width="262" height="70" as="geometry"/>
        </mxCell>
        <mxCell id="hNplgGaHxWNk5ys2LDTW-574" value="&lt;font style=&quot;font-size: 24px&quot;&gt;Conv3+PReLU&lt;/font&gt;" style="rounded=0;whiteSpace=wrap;html=1;gradientColor=#ffd966;fillColor=#fff2cc;strokeColor=#d6b656;" vertex="1" parent="1">
          <mxGeometry x="429.5" y="1703" width="262" height="70" as="geometry"/>
        </mxCell>
        <mxCell id="hNplgGaHxWNk5ys2LDTW-578" value="&lt;font style=&quot;font-size: 24px&quot;&gt;Deconv&lt;/font&gt;" style="rounded=0;whiteSpace=wrap;html=1;gradientColor=#ffa500;fillColor=#ffcd28;strokeColor=#d79b00;" vertex="1" parent="1">
          <mxGeometry x="424.5" y="1466" width="262" height="70" as="geometry"/>
        </mxCell>
        <mxCell id="hNplgGaHxWNk5ys2LDTW-579" value="&lt;font style=&quot;font-size: 24px&quot;&gt;Connection&lt;/font&gt;" style="rounded=0;whiteSpace=wrap;html=1;gradientColor=#ea6b66;fillColor=#f8cecc;strokeColor=#b85450;" vertex="1" parent="1">
          <mxGeometry x="424.5" y="1396" width="262" height="70" as="geometry"/>
        </mxCell>
        <mxCell id="hNplgGaHxWNk5ys2LDTW-580" style="edgeStyle=orthogonalEdgeStyle;curved=1;rounded=0;orthogonalLoop=1;jettySize=auto;html=1;" edge="1" source="hNplgGaHxWNk5ys2LDTW-581" parent="1">
          <mxGeometry relative="1" as="geometry">
            <mxPoint x="555.5" y="1176" as="targetPoint"/>
          </mxGeometry>
        </mxCell>
        <mxCell id="hNplgGaHxWNk5ys2LDTW-581" value="&lt;font style=&quot;font-size: 24px&quot;&gt;Conv3+PReLU&lt;/font&gt;" style="rounded=0;whiteSpace=wrap;html=1;gradientColor=#ffd966;fillColor=#fff2cc;strokeColor=#d6b656;" vertex="1" parent="1">
          <mxGeometry x="424.5" y="1256" width="262" height="70" as="geometry"/>
        </mxCell>
        <mxCell id="hNplgGaHxWNk5ys2LDTW-582" value="&lt;font style=&quot;font-size: 24px&quot;&gt;Conv3+PReLU&lt;/font&gt;" style="rounded=0;whiteSpace=wrap;html=1;gradientColor=#ffd966;fillColor=#fff2cc;strokeColor=#d6b656;" vertex="1" parent="1">
          <mxGeometry x="424.5" y="1326" width="262" height="70" as="geometry"/>
        </mxCell>
        <mxCell id="hNplgGaHxWNk5ys2LDTW-583" value="&lt;font style=&quot;font-size: 24px&quot;&gt;Deconv&lt;/font&gt;" style="rounded=0;whiteSpace=wrap;html=1;gradientColor=#ffa500;fillColor=#ffcd28;strokeColor=#d79b00;" vertex="1" parent="1">
          <mxGeometry x="428" y="1096" width="262" height="70" as="geometry"/>
        </mxCell>
        <mxCell id="hNplgGaHxWNk5ys2LDTW-584" value="&lt;font style=&quot;font-size: 24px&quot;&gt;Connection&lt;/font&gt;" style="rounded=0;whiteSpace=wrap;html=1;gradientColor=#ea6b66;fillColor=#f8cecc;strokeColor=#b85450;" vertex="1" parent="1">
          <mxGeometry x="428" y="1026" width="262" height="70" as="geometry"/>
        </mxCell>
        <mxCell id="hNplgGaHxWNk5ys2LDTW-615" style="edgeStyle=orthogonalEdgeStyle;curved=1;rounded=0;orthogonalLoop=1;jettySize=auto;html=1;" edge="1" parent="1" source="hNplgGaHxWNk5ys2LDTW-585">
          <mxGeometry relative="1" as="geometry">
            <mxPoint x="559" y="640.0000000000005" as="targetPoint"/>
          </mxGeometry>
        </mxCell>
        <mxCell id="hNplgGaHxWNk5ys2LDTW-585" value="&lt;font style=&quot;font-size: 24px&quot;&gt;Conv3+PReLU&lt;/font&gt;" style="rounded=0;whiteSpace=wrap;html=1;gradientColor=#ffd966;fillColor=#fff2cc;strokeColor=#d6b656;" vertex="1" parent="1">
          <mxGeometry x="428" y="886" width="262" height="70" as="geometry"/>
        </mxCell>
        <mxCell id="hNplgGaHxWNk5ys2LDTW-586" value="&lt;font style=&quot;font-size: 24px&quot;&gt;Conv3+PReLU&lt;/font&gt;" style="rounded=0;whiteSpace=wrap;html=1;gradientColor=#ffd966;fillColor=#fff2cc;strokeColor=#d6b656;" vertex="1" parent="1">
          <mxGeometry x="428" y="956" width="262" height="70" as="geometry"/>
        </mxCell>
        <mxCell id="hNplgGaHxWNk5ys2LDTW-589" value="&lt;font style=&quot;font-size: 24px&quot;&gt;Conv3+PReLU&lt;/font&gt;" style="rounded=0;whiteSpace=wrap;html=1;gradientColor=#ffd966;fillColor=#fff2cc;strokeColor=#d6b656;" vertex="1" parent="1">
          <mxGeometry x="436.5" y="490" width="262" height="70" as="geometry"/>
        </mxCell>
        <mxCell id="hNplgGaHxWNk5ys2LDTW-590" value="&lt;font style=&quot;font-size: 24px&quot;&gt;Conv3+PReLU&lt;/font&gt;" style="rounded=0;whiteSpace=wrap;html=1;gradientColor=#ffd966;fillColor=#fff2cc;strokeColor=#d6b656;" vertex="1" parent="1">
          <mxGeometry x="436.5" y="560" width="262" height="70" as="geometry"/>
        </mxCell>
        <mxCell id="hNplgGaHxWNk5ys2LDTW-618" style="edgeStyle=orthogonalEdgeStyle;curved=1;rounded=0;orthogonalLoop=1;jettySize=auto;html=1;entryX=0.54;entryY=1.031;entryDx=0;entryDy=0;entryPerimeter=0;" edge="1" parent="1" source="hNplgGaHxWNk5ys2LDTW-591" target="hNplgGaHxWNk5ys2LDTW-614">
          <mxGeometry relative="1" as="geometry"/>
        </mxCell>
        <mxCell id="hNplgGaHxWNk5ys2LDTW-591" value="&lt;font style=&quot;font-size: 24px&quot;&gt;Conv3+PReLU&lt;/font&gt;" style="rounded=0;whiteSpace=wrap;html=1;gradientColor=#ffd966;fillColor=#fff2cc;strokeColor=#d6b656;" vertex="1" parent="1">
          <mxGeometry x="436.5" y="420" width="262" height="70" as="geometry"/>
        </mxCell>
        <mxCell id="hNplgGaHxWNk5ys2LDTW-593" value="&lt;font style=&quot;font-size: 36px&quot;&gt;Conv3&lt;/font&gt;" style="rounded=0;whiteSpace=wrap;html=1;gradientColor=#ffd966;fillColor=#fff2cc;strokeColor=#d6b656;" vertex="1" parent="1">
          <mxGeometry x="38" y="2388" width="230" height="110" as="geometry"/>
        </mxCell>
        <mxCell id="hNplgGaHxWNk5ys2LDTW-594" value="" style="endArrow=none;html=1;" edge="1" parent="1">
          <mxGeometry width="50" height="50" relative="1" as="geometry">
            <mxPoint x="-105" y="2443" as="sourcePoint"/>
            <mxPoint x="-105" y="2240" as="targetPoint"/>
          </mxGeometry>
        </mxCell>
        <mxCell id="hNplgGaHxWNk5ys2LDTW-595" value="" style="endArrow=classic;html=1;" edge="1" parent="1">
          <mxGeometry width="50" height="50" relative="1" as="geometry">
            <mxPoint x="-105" y="2443" as="sourcePoint"/>
            <mxPoint x="35" y="2443" as="targetPoint"/>
          </mxGeometry>
        </mxCell>
        <mxCell id="hNplgGaHxWNk5ys2LDTW-596" value="" style="endArrow=none;html=1;" edge="1" parent="1">
          <mxGeometry width="50" height="50" relative="1" as="geometry">
            <mxPoint x="272" y="2443.5" as="sourcePoint"/>
            <mxPoint x="555" y="2442.5" as="targetPoint"/>
          </mxGeometry>
        </mxCell>
        <mxCell id="hNplgGaHxWNk5ys2LDTW-597" value="" style="endArrow=classic;html=1;" edge="1" parent="1">
          <mxGeometry width="50" height="50" relative="1" as="geometry">
            <mxPoint x="555" y="2443" as="sourcePoint"/>
            <mxPoint x="554.5" y="2286" as="targetPoint"/>
          </mxGeometry>
        </mxCell>
        <mxCell id="hNplgGaHxWNk5ys2LDTW-599" value="" style="endArrow=none;html=1;" edge="1" parent="1">
          <mxGeometry width="50" height="50" relative="1" as="geometry">
            <mxPoint x="-105" y="2281.5" as="sourcePoint"/>
            <mxPoint x="360" y="2282" as="targetPoint"/>
          </mxGeometry>
        </mxCell>
        <mxCell id="hNplgGaHxWNk5ys2LDTW-601" value="" style="endArrow=none;html=1;" edge="1" parent="1">
          <mxGeometry width="50" height="50" relative="1" as="geometry">
            <mxPoint x="360" y="2283" as="sourcePoint"/>
            <mxPoint x="360" y="2180" as="targetPoint"/>
          </mxGeometry>
        </mxCell>
        <mxCell id="hNplgGaHxWNk5ys2LDTW-602" value="" style="endArrow=classic;html=1;" edge="1" parent="1">
          <mxGeometry width="50" height="50" relative="1" as="geometry">
            <mxPoint x="360" y="2177" as="sourcePoint"/>
            <mxPoint x="426" y="2176.5" as="targetPoint"/>
          </mxGeometry>
        </mxCell>
        <mxCell id="hNplgGaHxWNk5ys2LDTW-603" value="" style="endArrow=none;html=1;" edge="1" parent="1">
          <mxGeometry width="50" height="50" relative="1" as="geometry">
            <mxPoint x="-105" y="1989" as="sourcePoint"/>
            <mxPoint x="360" y="1989.5" as="targetPoint"/>
          </mxGeometry>
        </mxCell>
        <mxCell id="hNplgGaHxWNk5ys2LDTW-604" value="" style="endArrow=none;html=1;" edge="1" parent="1">
          <mxGeometry width="50" height="50" relative="1" as="geometry">
            <mxPoint x="360" y="1989" as="sourcePoint"/>
            <mxPoint x="360" y="1810" as="targetPoint"/>
          </mxGeometry>
        </mxCell>
        <mxCell id="hNplgGaHxWNk5ys2LDTW-605" value="" style="endArrow=classic;html=1;" edge="1" parent="1">
          <mxGeometry width="50" height="50" relative="1" as="geometry">
            <mxPoint x="359.5" y="1808" as="sourcePoint"/>
            <mxPoint x="429.5" y="1808" as="targetPoint"/>
          </mxGeometry>
        </mxCell>
        <mxCell id="hNplgGaHxWNk5ys2LDTW-606" value="" style="endArrow=none;html=1;" edge="1" parent="1">
          <mxGeometry width="50" height="50" relative="1" as="geometry">
            <mxPoint x="-105" y="1699" as="sourcePoint"/>
            <mxPoint x="360" y="1699.5" as="targetPoint"/>
          </mxGeometry>
        </mxCell>
        <mxCell id="hNplgGaHxWNk5ys2LDTW-607" value="" style="endArrow=none;html=1;" edge="1" parent="1">
          <mxGeometry width="50" height="50" relative="1" as="geometry">
            <mxPoint x="360" y="1699" as="sourcePoint"/>
            <mxPoint x="360" y="1440" as="targetPoint"/>
          </mxGeometry>
        </mxCell>
        <mxCell id="hNplgGaHxWNk5ys2LDTW-608" value="" style="endArrow=classic;html=1;" edge="1" parent="1">
          <mxGeometry width="50" height="50" relative="1" as="geometry">
            <mxPoint x="359" y="1438" as="sourcePoint"/>
            <mxPoint x="425" y="1438" as="targetPoint"/>
          </mxGeometry>
        </mxCell>
        <mxCell id="hNplgGaHxWNk5ys2LDTW-609" value="" style="endArrow=none;html=1;" edge="1" parent="1">
          <mxGeometry width="50" height="50" relative="1" as="geometry">
            <mxPoint x="-105" y="1409" as="sourcePoint"/>
            <mxPoint x="360" y="1409.5000000000005" as="targetPoint"/>
          </mxGeometry>
        </mxCell>
        <mxCell id="hNplgGaHxWNk5ys2LDTW-610" value="" style="endArrow=none;html=1;" edge="1" parent="1">
          <mxGeometry width="50" height="50" relative="1" as="geometry">
            <mxPoint x="360.00000000000045" y="1406.5" as="sourcePoint"/>
            <mxPoint x="360" y="1070" as="targetPoint"/>
          </mxGeometry>
        </mxCell>
        <mxCell id="hNplgGaHxWNk5ys2LDTW-613" value="" style="endArrow=classic;html=1;" edge="1" parent="1">
          <mxGeometry width="50" height="50" relative="1" as="geometry">
            <mxPoint x="360.5" y="1068" as="sourcePoint"/>
            <mxPoint x="430.5" y="1068" as="targetPoint"/>
          </mxGeometry>
        </mxCell>
        <mxCell id="hNplgGaHxWNk5ys2LDTW-614" value="&lt;font style=&quot;font-size: 24px&quot;&gt;Output&lt;br&gt;image&lt;/font&gt;" style="rounded=0;whiteSpace=wrap;html=1;" vertex="1" parent="1">
          <mxGeometry x="395.5" y="80" width="320" height="180" as="geometry"/>
        </mxCell>
        <mxCell id="hNplgGaHxWNk5ys2LDTW-616" value="" style="endArrow=classic;html=1;" edge="1" parent="1">
          <mxGeometry width="50" height="50" relative="1" as="geometry">
            <mxPoint x="-105" y="720" as="sourcePoint"/>
            <mxPoint x="550" y="720" as="targetPoint"/>
          </mxGeometry>
        </mxCell>
      </root>
    </mxGraphModel>
  </diagram>
</mxfile>
